<?xml version="1.0" encoding="UTF-8"?><svg viewBox="0 0 484 166" xmlns="http://www.w3.org/2000/svg"><defs><linearGradient x1="7.94702493%" y1="72.9989559%" x2="48.3961027%" y2="43.2737542%" id="a"><stop stop-color="#E79A41" offset="0%"/><stop stop-color="#EFA845" offset="21.96%"/><stop stop-color="#F5B247" offset="50.22%"/><stop stop-color="#F7B548" offset="85.38%"/></linearGradient><linearGradient x1="32.2844299%" y1="90.4609077%" x2="58.0941874%" y2="46.7637592%" id="b"><stop stop-color="#E79A41" offset="0%"/><stop stop-color="#E89B41" offset="1.5%"/><stop stop-color="#F0AA45" offset="25.61%"/><stop stop-color="#F5B247" offset="54.41%"/><stop stop-color="#F7B548" offset="100%"/></linearGradient><radialGradient cx="12.5589441%" cy="67.7789542%" fx="12.5589441%" fy="67.7789542%" r="67.2901507%" gradientTransform="matrix(1 0 0 .56476 0 .295)" id="c"><stop stop-color="#9B643D" offset="0%"/><stop stop-color="#B5835C" offset="63.74%"/><stop stop-color="#BF8F68" offset="100%"/></radialGradient><linearGradient x1="74.5202839%" y1="78.482791%" x2="51.231545%" y2="52.9501047%" id="d"><stop stop-color="#8B8CC7" offset="0%"/><stop stop-color="#8F90CA" offset="8.95%"/><stop stop-color="#A0A1D7" offset="61.27%"/><stop stop-color="#A6A7DC" offset="100%"/></linearGradient><radialGradient cx="13.6439018%" cy="52.8555256%" fx="13.6439018%" fy="52.8555256%" r="70.4784809%" gradientTransform="scale(.50287 1) rotate(-45.357 .20388 .36716)" id="e"><stop stop-color="#33312D" offset="0%"/><stop stop-color="#38332E" offset="5.87%"/><stop stop-color="#4A3D34" offset="35.57%"/><stop stop-color="#554338" offset="66.42%"/><stop stop-color="#594539" offset="99.96%"/></radialGradient><linearGradient x1="58.4535694%" y1="95.1154801%" x2="44.049094%" y2="39.4074139%" id="f"><stop stop-color="#8B8CC7" offset="0%"/><stop stop-color="#8F90CA" offset="8.95%"/><stop stop-color="#A0A1D7" offset="61.27%"/><stop stop-color="#A6A7DC" offset="100%"/></linearGradient><radialGradient cx="10.3282827%" cy="26.5186166%" fx="10.3282827%" fy="26.5186166%" r="56.5703934%" gradientTransform="scale(1 .9199) rotate(1.645 -.7012 .27673)" id="g"><stop stop-color="#9A6541" offset="0%"/><stop stop-color="#BE906B" offset="100%"/></radialGradient><linearGradient x1="50.1623984%" y1="-3.68505276%" x2="49.7500084%" y2="93.1098645%" id="h"><stop stop-color="#33312D" offset="0%"/><stop stop-color="#38332E" offset="5.87%"/><stop stop-color="#4A3D34" offset="35.57%"/><stop stop-color="#554338" offset="66.42%"/><stop stop-color="#594539" offset="99.96%"/></linearGradient><radialGradient cx="100.14712%" cy="64.8322593%" fx="100.14712%" fy="64.8322593%" r="64.4841767%" gradientTransform="matrix(.99995 .00542 -.0097 .5587 .00634 .28067)" id="i"><stop stop-color="#9B643D" offset="0%"/><stop stop-color="#BF8F68" offset="100%"/></radialGradient></defs><g fill="none" fill-rule="evenodd"><g fill-rule="nonzero"><path d="M147.8471 90.7526c0 41.362-32.8962 74.7184-73.6875 74.7184S.4721 132.1146.4721 90.7526s32.8962-74.7184 73.6875-74.7184c22.3694 0 42.1072 10.0069 55.2656 25.3509 11.1847 12.6754 18.4219 30.0208 18.4219 49.3675z" fill="#E2E2F6"/><path d="M167.2228 101.8689s3.0191 4.6856 3.6005 5.5812c-4.8444 5.8329-16.0568 19.2939-32.1701 31.0101 0 0-2.0338-.3764-5.6396-16.8849 15.3345-5.391 34.2092-19.7064 34.2092-19.7064z" fill="#BF8F68"/><path d="M193.2049 97.067c-3.0659 2.121-4.2075 3.8057-8.8051 6.5257-3.4289 2.0285-10.4136 5.3804-16.31 4.1759l-1.9199-5.0281.0185-.014c.9091-1.1723 1.8722-2.2712 2.8489-3.2377 6.0578-6.0633 11.6641-9.9208 11.6822-9.9345 1.0872-.2804 1.9319.7917 1.3114 1.8597-.4017.6549-2.2985 2.8035-3.3721 5.0427-.2592.5404.9082.7134 1.4862.578 4.6019-1.0782 8.8041-2.2302 12.3725-2.9695 2.0358-.2632 2.7908 1.2748.6874 3.0018z" fill="#BF8F68"/><path d="M78.5777 73.1332c-7.1344 33.0692 7.9564 65.4427 44.2717 63.9107 20.8482-.8795 39.8837-19.8751 39.8837-19.8751l-6.7027-23.5723s-17.4264 9.6161-29.5879 7.5357c-12.2804-2.1008-23.7571-25.4734-47.8648-27.999z" fill="url(#a)" transform="translate(0 16)"/><path d="M64.6504 63.2744c-23.108-3.6138-45.466 10.0414-49.6826 30.8239l-.2476-.0451L12.68 114.561c13.4894 17.027 34.1914 27.91 57.4796 27.91 8.8499 0 17.3261-1.5745 25.1775-4.4558l3.9789-28.5453-.0113-.0021c3.1115-20.8615-11.8624-42.6291-34.6543-46.1934z" fill="url(#b)" transform="translate(4 23)"/><path d="M4.6488 115.6285c4.3493 12.5484 11.8985 23.5409 21.6652 31.9914-.8427-5.2207 2.9732-12.1778 9.8626-17.2902 9.0264-6.6981 22.3476-21.6729 17.1863-43.9366-16.1866.8653-37.6072 11.9727-48.7141 29.2354z" fill="#F7B548"/><path d="M55.7442 54.6704c8.9185.7518 17.7313-.2328 26.644.5646 3.7421 11.5931 2.1935 18.5893 1.1951 28.7181-.2608 2.6475 1.0026 5.606 4.4596 7.3529-.4364 5.1103-4.9785 12.5576-12.9729 11.4105-7.9944-1.1471-17.3376-13.2574-25.1425-15.9975 2.6485-.4769 6.2931-3.3966 6.9815-6.3852 1.6653-7.2293.859-15.4289-1.1648-25.6634z" fill="#BF8F68"/><g transform="translate(51 23)"><path d="M39.5575 31.8435L3.5409 33.8211l-.6551-13.425c-.1865-3.8222 2.5003-7.0764 6.001-7.2687l23.3415-1.2816c3.4995-.1921 6.4875 2.7494 6.6739 6.5701l.6553 13.4276z" fill="#594539"/><path d="M29.0732 21.7525c-2.2301-.0804-9.6202-4.4343-14.0751-4.3759-5.4191.0711-6.7657 3.0085-6.7657 3.0085S3.5811 5.5422 17.0053 5.66c3.9337.0345 8.2315.3944 11.254.1516C32.8557 5.4424 34.886.7361 41.3366 3.143c4.4821 1.6724 6.1046 9.2987 1.925 13.5928-3.2574 3.3464-10.9216 5.1344-14.1884 5.0167z" fill="#594539"/><circle fill="#594539" cx="26.5398" cy="7.0715" r="6.5387"/><circle fill="#594539" cx="41.6028" cy="19.3448" r="4.4336"/><ellipse fill="#BF8F68" transform="rotate(-79.986 6.90129 36.4825)" cx="6.90128742" cy="36.4825063" rx="5.88201248" ry="5.80080954"/><path d="M27.0837 57.9009c-10.1493.5548-18.7815-7.3295-19.28-17.6096L6.791 19.4104l27.4223-1.4991c3.7802-.2066 6.9952 2.7299 7.1809 6.5588l.7985 16.468c.431 8.8888-6.3333 16.4831-15.109 16.9628z" fill="#594539"/><path d="M36.45 43.3469l-15.486.8601c-3.2394.1771-8.7523-1.4664-9.667-8.8211l-.5311-12.4171c-.1037-2.1339 1.5202-3.9571 3.6269-4.0723l19.8355-1.0844c5.9435-.2131 6.9949 2.7296 7.1808 6.5582l.6176 12.7149c.1595 3.2811-2.3373 6.0846-5.5767 6.2617z" fill="#BF8F68"/><path d="M38.2918 42.9365l-.6967-16.168-8.8907.4359.1839 3.9211c.0497 1.0599.3976 2.0818 1.0026 2.9453l2.538 3.6223c.4116.5873.2781 1.403-.2991 1.829l-2.6526 1.9574c-.5183.3824-.8133 1.0023-.7851 1.6496l.0279.6404 7.73-.4225c.6497-.0356 1.2673-.181 1.8418-.4105z" fill="url(#c)"/><path d="M23.0113 46.1099c.7187 1.3617 2.1856 2.1194 3.6064 2.3722 1.4212.22 3.0257.0546 4.199-1.061.1673-.1591.1764-.4249.0201-.5937-.0723-.0781-.1673-.1218-.2651-.1303l-.0815-.007c-1.2565-.1083-2.3674-.2464-3.5025-.4278-1.1413-.179-2.1805-.4222-3.4594-.7646l-.0316-.0085c-.2267-.0606-.4597.0765-.5208.3064a.43566.43566 0 00.0354.3143z" stroke="#594539" stroke-width="6.7181" fill="#594539"/><path d="M23.5172 45.1787c1.2814.3433 2.3149.5916 3.4553.767.5612.0849 1.1274.1759 1.7049.2431l1.7946.1812.0724.0073c.2334.0236.4034.2318.3799.4652a.42375.42375 0 01-.1171.2524c-.5563.5757-1.2897.8702-2.007 1.0218-.7245.1498-1.4695.1656-2.1946.0357-.7249-.1238-1.434-.382-2.0694-.7733-.6328-.3881-1.2021-.9173-1.5415-1.5966-.1067-.2134-.0201-.4729.1933-.5796.0981-.049.2059-.0572.3042-.0311l.025.0069z" fill="#9B643D"/><ellipse fill="#33312D" transform="rotate(-2.642 22.01171 33.24691)" cx="22.0117103" cy="33.2469135" rx="1.35845002" ry="2.53920658"/><ellipse fill="#33312D" transform="rotate(-2.642 34.91555 32.5449)" cx="34.9155487" cy="32.5448976" rx="1.35845002" ry="2.53920658"/><path d="M4.5574 30.72l2.3565-.1155c1.8118-.0888 4.1817 1.756 4.1817 1.756s-.0765-1.7597.5497-3.4478c.8596-2.3173 1.9017-3.7737 2.4326-6.2631.5308-2.4894-.1933-4.4869-.1933-4.4869l-9.8474.4828.5202 12.0745z" fill="#594539"/></g></g><g fill-rule="nonzero"><path fill="#FFFFFF" d="M183.11413 87.43152l46.9883-12.98649 12.04855 43.5946-46.9883 12.98649z"/><path fill="#BDBDE6" d="M183.11298 87.43105l46.9883-12.9865 2.62238 9.48844-46.9883 12.9865z"/><path d="M194.9194 89.1505c.8946-.2473 1.4193-1.1732 1.172-2.0677l-1.6356-5.9162c-.2473-.8946-1.1732-1.4193-2.0678-1.172-.8946.2473-1.4193 1.1732-1.172 2.0677l1.6356 5.9162c.2473.8946 1.1732 1.4193 2.0678 1.172zM203.6023 86.75c.8946-.2473 1.4193-1.1732 1.172-2.0677l-1.6356-5.9162c-.2473-.8946-1.1732-1.4193-2.0677-1.172-.8946.2473-1.4193 1.1732-1.172 2.0677l1.6356 5.9162c.2473.8946 1.1731 1.4193 2.0677 1.172zM212.2853 84.3494c.8946-.2473 1.4193-1.1732 1.172-2.0677l-1.6356-5.9162c-.2473-.8946-1.1732-1.4193-2.0677-1.172-.8946.2473-1.4193 1.1732-1.172 2.0677l1.6356 5.9162c.2473.8946 1.173 1.4193 2.0677 1.172zM220.9683 81.9489c.8946-.2473 1.4193-1.1732 1.172-2.0677l-1.6356-5.9162c-.2473-.8946-1.1732-1.4193-2.0677-1.172-.8946.2473-1.4193 1.1732-1.172 2.0677l1.6356 5.9162c.2473.8946 1.1729 1.4194 2.0677 1.172z" fill="#C8C6C4"/><path d="M192.0184 84.9575l.8308 3.017c.2555.8996 1.173 1.4302 2.0732 1.1746.8875-.2403 1.4165-1.1721 1.1746-2.0739l-.845-3.0148-3.2336.8971zM200.6971 82.5494l.8323 3.0306c.2539.886 1.1714 1.4166 2.0732 1.1746.9003-.2556 1.4165-1.1721 1.1747-2.0732l-.8323-3.0306-3.2479.8986zM209.3916 80.1541l.8307 3.0164c.2412.9019 1.173 1.4302 2.0589 1.1762.9018-.2419 1.4166-1.1714 1.1762-2.0596l-.8315-3.03-3.2343.897zM218.0702 77.7461l.8323 3.0306c.2419.9011 1.1714 1.4159 2.0596 1.1762.8995-.2562 1.4301-1.1737 1.1746-2.0739l-.8322-3.0299-3.2343.897z" fill="#A6A7DC"/></g><g transform="translate(222 81)"><path fill="#F3F2F1" fill-rule="nonzero" d="M2.2733 13.8684L53.737.9879l9.8267 39.26227-51.46371 12.88052z"/><path d="M63.7598 39.0117l-1.8289-7.8499-16.3987-11.5394c-.4654-.3648-1.1792-.1729-1.4276.3836l-4.855 12.6777-9.8523-5.9883c-.5692-.3522-1.3868-.1478-1.7263.5252l-10.76 24.1532 37.039-9.755-.21-.1277 10.0198-2.4794z" fill="#E1DFDD" fill-rule="nonzero"/><circle fill="#FFFFFF" fill-rule="nonzero" cx="18.9324" cy="22.8318" r="5.8536"/><path d="M.87267 13.54045L54.818.03883l10.33937 41.31064-53.94532 13.50162z"/><path d="M51.9673 4.9733l8.3982 33.5328-46.1864 11.601-8.3982-33.5329L51.9673 4.9733M.8912 13.5871l10.3919 41.2935 53.9596-13.491L54.8508.0961.8912 13.5871z" fill="#E1DFDD" fill-rule="nonzero"/></g><g fill-rule="nonzero"><path d="M294.1988 91.9395c-8.5143 2.7582-17.0286 5.5163-25.5428 8.2746-.614.1992-.7897.8075-.4216 1.3679 10.2041 15.4983 5.5478 35.7397 15.8215 51.2158.3715.5597 1.1914.8448 1.8057.6463 12.6703-4.1047 25.3405-8.2094 38.0108-12.3139.6129-.1987.7921-.8078.4237-1.3686-7.6821-11.7113-6.9077-26.1215-10.5059-39.1363-.0825-.2981-.2813-.5464-.552-.6905-5.3882-2.8522-11.2599-5.5504-18.0459-7.9565-.3395-.1209-.6989-.1345-.9935-.0388z" fill="#E1DFDD"/><path d="M323.7719 141.1627c-12.6034 4.083-25.2066 8.166-37.8099 12.2488-.6685.2167-1.5637-.094-1.9665-.7053-10.1746-15.4336-5.5956-35.577-15.7009-51.0327-.3997-.6112-.2083-1.2749.4619-1.492 8.2329-2.667 16.466-5.334 24.6988-8.001.6656-.216 1.5556.091 1.9617.698 2.157 3.2276 3.6656 6.6622 4.7969 10.2173.2105.6647.9018 1.0348 1.5674.8239 3.5568-1.1263 7.1134-2.2526 10.6702-3.3787.6678-.2116 1.3643.1611 1.5425.8406 3.3586 12.7805 2.7715 26.8204 10.2423 38.2883.3979.6116.20568 1.2756-.4644 1.4928z" fill="#FFFFFF"/></g><g fill-rule="nonzero"><path d="M483.526 90.7526c0 40.7913-32.8962 73.6876-73.6876 73.6876s-73.6876-32.8963-73.6876-73.6876c0-40.7913 32.8962-73.6876 73.6876-73.6876 22.3694 0 42.1072 9.8689 55.2657 25.0012 11.1847 12.5005 18.4219 29.6066 18.4219 48.6864z" fill="#FFD590"/><path d="M370.1981 128.0355c15.0193-5.7428 18.052-15.2582 3.2637-10.3842-12.4645 4.1081-31.7326 1.798-47.0469 2.6723-.8434 1.9823-.7574 3.1528-.3448 5.1496 15.6854 3.6859 27.3625 8.9727 44.128 2.5623z" fill="#BF8F68"/><path d="M105.1909.6318c-9.0434.7812-21.3235 21.9783-35.0001 28.7356-10.0098 4.9455-28.6723 4.3927-28.6687 4.814.0766 8.882.1939 13.9353.1939 13.9353s14.3248 7.6716 37.9996 3.4676c20.9149-3.7139 34.6241-21.2396 38.9244-32.8779C122.9404 7.0679 114.2344-.1495 105.1909.6318z" fill="url(#d)" transform="translate(306 86)"/><path d="M318.9037 127.0931c1.9884.1821 5.0866.2316 7.2132-1.548l.7176-5.1286s-7.4666-3.3629-11.1637-3.627c-.0243-.0053-6.1717-.6-7.2872-.7459-1.7393-.2175-1.844 1.3174-1.322 1.9846.6386.8161 6.8435 2.8752 6.8435 2.8752l4.9986 6.1897z" fill="#BF8F68"/><g transform="translate(379 31)"><path d="M21.0303 40.5021c-.0653.6551-.3089 1.1871-.7205 1.6799-.4028.4849-.9886.8648-1.6255 1.0418-.6361.1757-1.2957.1564-1.8706-.0036-.576-.1646-1.0747-.4587-1.47-.8674-.233-.2409-.2266-.6252.0143-.8582.0955-.0923.2134-.1471.3356-.1645l.0986-.0141c.2568-.0369.4826-.0291.7021-.0236.2165-.0235.4229-.003.6143-.0192.3856-.01.7115-.0624 1.0196-.1167.3047-.0712.5828-.1929.8936-.3645.3029-.1645.6268-.4489.9435-.6852l.1577-.1177c.2521-.1881.6089-.1363.7971.1158.0883.1184.1236.261.1102.3972z" fill="#9A6541"/><path d="M60.7258.7557c20.6592-1.8945 24.0847 22.6648 39.7169 16.9827 0 0-5.2946 12.857-17.3376 13.5839-16.656 1.0054-17.9279-10.0151-27.3845-13.8766-7.0883-2.8944-16.399 1.2772-16.399 1.2772S40.7646 2.5862 60.7258.7557z" fill="url(#e)"/><path d="M51.8607 24.9542c-1.988 13.4287-13.4514 18.2039-12.4205 24.1745-2.7278 1.3353-5.1453-3.0993-8.3662-3.1306-11.3665-.1102-20.4886-9.7106-20.3748-21.4431.1137-11.7325 9.4203-21.1542 20.7867-21.044 11.3664.1104 22.093 9.8367 20.3748 21.4432z" fill="#59453C"/><path d="M81.6769 113.1344c-5.811-10.1261-12.2411-21.9275-17.2864-32.7585-8.5031-18.2541-18.7965-25.1444-32.1283-22.5225-13.3318 2.6216-20.139 17.4282-18.4728 33.5606 1.1357 10.9964 6.8361 30.1022 10.5472 41.7262 2.1436.1863 4.3086.3001 6.5018.3001 19.7466 0 37.6283-7.7243 50.8385-20.3059z" fill="url(#f)"/><path d="M19.24 65.2734l-.0675-5.957c-.0833-.9857.232-1.4489 1.2356-1.3683l6.3088-.0512-7.4769 7.3765z" fill="#8B8CC7"/><path d="M19.0952 69.9248l3.8102-6.0647c.7395-1.2168 2.1077-2.7003 3.232-2.8576l-3.6742-.2449c-1.0118 1.0492-2.9822 3.6981-3.2145 4.107l-.1535 5.0602z" fill="#BE906B"/><path d="M47.4991 66.202c-10.5533-4.3996-20.1418 8.5953-13.9143 19.8174 6.2344 11.2346 7.5674 17.9449 11.3579 34.3493.5577 2.4138 1.2194 7.3872 1.7012 11.3649 5.6065-1.2189 10.9762-3.0603 16.0217-5.4712.0031-1.8421-.0156-3.601-.075-4.9552-1.1018-25.1635.011-48.8092-15.0915-55.1052z" fill="#A6A7DC"/><path d="M40.0441 51.008c-1.6073-4.7311-3.138-11.4852-4.3658-16.7007-4.1602 1.5574-8.2289 3.3993-12.2408 5.3262.9267 4.4269 3.1358 9.7478 3.2065 14.0566.0704 4.3088-2.3103 4.6606-4.5299 7.5398 8.2561-.27 16.4931-1.1273 24.7659-1.4988-3.2529-2.4345-5.2287-3.992-6.8359-8.7231z" fill="url(#g)"/><path d="M33.8029 7.9559c-.6597 1.843-3.7467 7.9806-9.2386 12.7251-5.394 4.66-3.0854 22.4251-13.0887 28.7581 0 0 .8296-1.8752-2.3846-6.4103-3.2141-4.5351-13.3157-15.4292-6.6888-27.815 8.6802-16.2233 31.4007-7.2579 31.4007-7.2579z" fill="#59453C"/><path d="M11.8808 22.0717s-3.7568 2.5735-4.7109 5.5815c-1.2652 3.9887 1.1515 6.9704 2.7004 10.62 1.4953 3.5233 2.1036 7.7854 2.1036 7.7854l5.3777-15.2401-5.4708-8.7468z" fill="url(#h)"/><path d="M11.3617.6273L.9776.5266.7952 19.3375l10.3841.1007z" transform="translate(14 23)" fill="url(#i)"/><ellipse fill="#3A312E" transform="rotate(-89.444 18.26997 30.70607)" cx="18.2699715" cy="30.7060684" rx="2.70992748" ry="1.45346837"/><ellipse fill="#3A312E" transform="rotate(-89.444 32.33682 30.91763)" cx="32.3368194" cy="30.9176258" rx="2.70992748" ry="1.45346837"/><path d="M21.4488 35.8461c-.0446 1.2168 3.0071 2.726 3.7502 4.5613 3.1783-3.4831.5543-14.0179.5543-14.0179s-.6538 4.1071-2.0073 6.1394c-1.152 1.7298-2.2525 2.1004-2.2972 3.3172z" fill="#BE906B"/><path d="M25.5067 8.6658c-9.3071-.0902-13.6934 6.8233-13.7837 16.1304-.1146 11.8186-1.9034 24.5991 8.1844 25.813 12.5765 1.5134 18.5832-11.9227 18.6978-23.7414.0903-9.3071-3.7913-18.1117-13.0985-18.202z" fill="#BE906B"/><path d="M14.718 41.9717l7.4973-1.3871s-.1785 3.7458-2.8808 4.3003c-3.3088.6789-4.6165-2.9132-4.6165-2.9132z" fill="#874545"/><path d="M22.2152 40.5846l-7.4972 1.387s.127.3476.4005.8058c.0012.0002 3.6277.4014 6.966-1.2771.1119-.5351.1307-.9157.1307-.9157z" fill="#FFFFFF"/><path d="M7.09176 35.7069c-.01536 1.5685 4.18334 2.7374 4.92644 4.5727 3.1783-3.4831-.317-14.0264-.317-14.0264s-.3312 3.3645-2.3123 6.1365c-1.2084 1.6908-2.2851 2.0996-2.29714 3.3172z" fill="#BE906B"/><ellipse fill="#3A312E" transform="rotate(-89.444 17.19272 30.69567)" cx="17.1927226" cy="30.6956675" rx="2.70992748" ry="1.45346837"/><path d="M37.4287 38.6515l-4.8164-.0467.089-9.178 4.8164.0467c2.5344.0246 4.5691 2.0991 4.5445 4.6335-.0246 2.5344-2.0991 4.569-4.6335 4.5445z" fill="#BE906B"/><path d="M18.6984 9.1148c-1.6056 2.6751-.0887 9.142 7.3324 13.8342 5.6857 3.595 5.6043 9.7981 5.6043 9.7981s5.5551-.0108 8.1689-4.4992c2.5172-4.3224 2.7849-14.5787-1.3565-19.4466-5.4332-6.3864-15.2941-7.1092-19.7491.3135z" fill="#59453C"/><path d="M26.9894 6.9151c-.6897 1.9269-3.9173 8.3439-9.6592 13.3045-2.5162 2.1738-7.8676 2.9766-9.931 6.8359-1.7906 3.3491-8.1063.5903-3.2155-8.728C13.1241 1.2938 26.9894 6.9151 26.9894 6.9151z" fill="#59453C"/></g></g><path d="M254.8533 50.757V2.9404c0-1.3263 1.0128-2.4114 2.2506-2.4114h98.2222c1.2379 0 2.2506 1.0851 2.2506 2.4114V50.757c0 1.3263-1.0128 2.4114-2.2506 2.4114h-98.2222c-1.2379 0-2.2506-1.0851-2.2506-2.4114z" fill="#FFFFFF" fill-rule="nonzero"/><path d="M344.4133 52.1001l12.6819-5.9559 5.5005 11.7122c.6579 1.4009-.8185 2.8467-2.2054 2.1596l-15.977-7.9159z" fill="#FFFFFF" fill-rule="nonzero"/><path fill="#E1DFDD" fill-rule="nonzero" d="M263.6505 11.21h49.1925v4.2199h-49.1925zM263.6505 19.5294h71.9036v4.2199h-71.9036zM260.1543 32.9914h92.1214v15.5113h-92.1214z"/><path d="M272.5611 46.3905h-7.4234c-.2877 0-.5209-.2332-.5209-.5209V35.6245c0-.2877.2332-.5209.5209-.5209h4.7195l3.2248 3.2247v7.5413c0 .2876-.2332.5209-.5209.5209z" fill="#FAFAFA"/><path d="M269.8572 37.8075c0 .2877.2332.5209.5209.5209h2.7039l-3.2248-3.2247v2.7038z" fill="#C8C6C4"/><path d="M267.7473 39.1346h-.5482l-.4535 2.2549-.6425-2.1921h-.4849l-.6801 2.1921-.447-2.2549h-.5861l.649 3.2248h.5793l.7119-2.2235.674 2.2235h.5793z"/><path d="M268.1755 43.5687h-4.6985c-.1302 0-.2415-.046-.3338-.1387-.0923-.0923-.1387-.2036-.1387-.3338v-4.6985c0-.1302.0464-.2415.1387-.3338s.2036-.1387.3338-.1387h4.6985c.1302 0 .2415.0464.3338.1387s.1387.2036.1387.3338v4.6985c0 .1302-.0464.2415-.1387.3338-.0924.0928-.2036.1387-.3338.1387" fill="#3E8EED"/><path fill="#FFFFFF" d="M267.0984 42.3594h-.5792l-.674-2.2235-.7119 2.2235h-.5793l-.6489-3.2248h.5857l.4474 2.255.68-2.1921h.485l.6425 2.1921.4535-2.255h.5478z"/><path fill="#C8C6C4" fill-rule="nonzero" d="M279.3403 38.6371h24.4549v4.2199h-24.4549zM332.9285 38.6371h10.4188v4.2199h-10.4188z"/><g fill-rule="nonzero"><path d="M221.1283 48.1711V15.5263c0-1.0424-.9134-1.8954-2.0297-1.8954h-88.581c-1.1163 0-2.0297.8529-2.0297 1.8954v32.6448c0 1.0425.9134 1.8954 2.0297 1.8954h88.581c1.1164 0 2.0297-.853 2.0297-1.8954z" fill="#C3C3E1"/><path d="M141.243 48.9982l-12.6819-5.9559-5.5005 11.7122c-.6579 1.4009.8185 2.8467 2.2053 2.1596l15.9771-7.9159z" fill="#C3C3E1"/><path fill="#FFFFFF" d="M140.3392 23.8175h26.1268v4.2199h-26.1268zM140.3392 32.1368h58.1204v4.2199h-58.1204z"/></g></g></svg>